<svg width="27" height="28" viewBox="0 0 27 28" fill="none" xmlns="http://www.w3.org/2000/svg">
<g clip-path="url(#clip0_12_168)">
<path d="M4.04185 13.5039C4.04185 13.9736 3.85527 14.424 3.52316 14.7561C3.19105 15.0882 2.7406 15.2748 2.27093 15.2748C1.80125 15.2748 1.3508 15.0882 1.01869 14.7561C0.686579 14.424 0.5 13.9736 0.5 13.5039C0.500981 11.0255 1.21063 8.59908 2.54526 6.51076C3.87989 4.42243 5.78384 2.75929 8.0326 1.71745C10.2814 0.675605 12.7811 0.298516 15.2372 0.630647C17.6932 0.962778 20.003 1.99028 21.8943 3.59198V2.21312C21.8943 1.74345 22.0809 1.293 22.413 0.960892C22.7451 0.628779 23.1955 0.4422 23.6652 0.4422C24.1349 0.4422 24.5853 0.628779 24.9174 0.960892C25.2495 1.293 25.4361 1.74345 25.4361 2.21312V7.79682C25.4361 8.26417 25.2505 8.71237 24.92 9.04283C24.5896 9.37329 24.1413 9.55894 23.674 9.55894L18.3018 10.0589C18.0711 10.0798 17.8386 10.055 17.6175 9.98592C17.3964 9.91688 17.191 9.80497 17.0132 9.65658C16.8354 9.50819 16.6885 9.32623 16.581 9.12107C16.4734 8.91592 16.4074 8.6916 16.3866 8.46092C16.3657 8.23024 16.3906 7.99772 16.4596 7.77663C16.5286 7.55553 16.6405 7.3502 16.7889 7.17236C16.9373 6.99452 17.1193 6.84765 17.3244 6.74013C17.5296 6.63261 17.7539 6.56655 17.9846 6.54572L19.7467 6.38493C18.3778 5.18831 16.6934 4.41099 14.8947 4.1458C13.0959 3.88061 11.2589 4.13875 9.60286 4.88941C7.94687 5.64006 6.54194 6.8515 5.55584 8.37905C4.56974 9.90659 4.04415 11.6857 4.04185 13.5039ZM9.05727 17.8211C9.52461 17.779 9.98952 17.9243 10.3497 18.225C10.7099 18.5257 10.9359 18.9572 10.978 19.4246C11.02 19.8919 10.8747 20.3568 10.574 20.717C10.2733 21.0772 9.84179 21.3032 9.37445 21.3453L7.15418 21.5457C8.51249 22.7766 10.1991 23.5863 12.009 23.8765C13.8189 24.1666 15.6742 23.9247 17.3492 23.1802C19.0242 22.4357 20.4468 21.2206 21.4441 19.6826C22.4415 18.1447 22.9705 16.3501 22.967 14.5171C22.967 14.0474 23.1535 13.597 23.4857 13.2649C23.8178 12.9327 24.2682 12.7462 24.7379 12.7462C25.2076 12.7462 25.658 12.9327 25.9901 13.2649C26.3222 13.597 26.5088 14.0474 26.5088 14.5171C26.5091 16.9633 25.819 19.36 24.5178 21.4314C23.2165 23.5028 21.3571 25.1649 19.1533 26.2266C16.9494 27.2883 14.4907 27.7063 12.0598 27.4327C9.62893 27.1592 7.32463 26.205 5.41189 24.6801V25.6008C5.41189 26.0705 5.22532 26.5209 4.8932 26.853C4.56109 27.1851 4.11065 27.3717 3.64097 27.3717C3.17129 27.3717 2.72085 27.1851 2.38874 26.853C2.05662 26.5209 1.87004 26.0705 1.87004 25.6008V20.0854C1.8683 19.6439 2.03234 19.2179 2.32969 18.8916C2.62704 18.5652 3.03604 18.3624 3.47577 18.3233L9.05066 17.8166L9.05727 17.8211Z" fill="#558D02"/>
</g>
<defs>
<clipPath id="clip0_12_168">
<rect width="26" height="27.0661" fill="white" transform="translate(0.5 0.45105)"/>
</clipPath>
</defs>
</svg>
